<svg width="24" height="24" viewBox="0 0 24 24" fill="none" xmlns="http://www.w3.org/2000/svg">
<path d="M5.5564 12.3949L4.3564 13.0036C3.99837 13.1862 3.89481 13.5518 4.1222 13.8304C4.34958 14.1089 4.82617 14.2004 5.2 14.0372V18.0753H4.8C4.35817 18.0753 4 18.3478 4 18.684C4 19.0202 4.35817 19.2927 4.8 19.2927H7.2C7.64183 19.2927 8 19.0202 8 18.684C8 18.3478 7.64183 18.0753 7.2 18.0753H6.8V12.9013C6.79995 12.6769 6.63757 12.4707 6.37751 12.3648C6.11744 12.2588 5.80187 12.2704 5.5564 12.3949Z" fill="#1E1E1E"/>
<path d="M11.5769 19.2927C12.639 19.2927 13.5 18.6114 13.5 17.771V13.8145C13.5 12.974 12.639 12.2927 11.5769 12.2927H10.4231C9.36099 12.2927 8.5 12.974 8.5 13.8145V17.771C8.5 18.6114 9.36099 19.2927 10.4231 19.2927H11.5769ZM10.0385 17.771V13.8145C10.0385 13.6464 10.2107 13.5101 10.4231 13.5101H11.5769C11.7893 13.5101 11.9615 13.6464 11.9615 13.8145V17.771C11.9615 17.9391 11.7893 18.0753 11.5769 18.0753H10.4231C10.2107 18.0753 10.0385 17.9391 10.0385 17.771Z" fill="#1E1E1E"/>
<path fill-rule="evenodd" clip-rule="evenodd" d="M4.27976 8.48662C3.90453 8.09733 3.90676 7.47883 4.28646 7.09227L6.59227 4.78647C6.98329 4.40238 7.61163 4.40452 8 4.79289L8.32843 5.12132C8.53757 5.33046 8.53757 5.66954 8.32843 5.87868C8.32679 5.88032 8.32516 5.88197 8.32355 5.88362L7.41436 6.7928H8.69664C8.70011 6.79286 8.7036 6.79289 8.70711 6.79289H18C18.5523 6.79289 19 7.24061 19 7.79289V18.2929C19 18.8406 18.5597 19.2854 18.0138 19.2928H15.986C15.446 19.2855 15.0093 18.85 15 18.3104V18.2754C15.0094 17.7312 15.4534 17.2929 15.9998 17.2929H16.9998C17.0045 17.2929 17.0091 17.2929 17.0137 17.2928L16.9998 17.2929L17.0002 8.7928H7.41436L8.31845 9.69688C8.32171 9.70031 8.32502 9.7037 8.3284 9.70708C8.53755 9.91623 8.53753 10.2553 8.32836 10.4645L7.99992 10.7928C7.61388 11.1789 6.99063 11.1834 6.59917 10.806L4.27976 8.48662Z" fill="#1E1E1E"/>
</svg>
