<svg width="24" height="24" viewBox="0 0 24 24" fill="none" xmlns="http://www.w3.org/2000/svg">
<path d="M19.592 10.19C19.254 10.046 17.805 10.206 17.403 9.843C17.119 9.581 17.101 9.107 16.99 8.475C16.804 7.416 16.727 7.176 16.534 6.759C15.831 5.273 14.147 4 12.617 4H9.07C6.28 4 4 6.277 4 9.057V14.953C4 17.728 6.28 20 9.07 20H14.897C17.687 20 19.952 17.728 19.968 14.953L20 10.87C20 10.87 20 10.365 19.592 10.19ZM9.134 8.133H11.946C12.482 8.133 12.917 8.566 12.917 9.095C12.917 9.625 12.482 10.062 11.946 10.062H9.134C8.598 10.062 8.163 9.624 8.163 9.095C8.163 8.565 8.598 8.133 9.134 8.133ZM14.849 15.841H9.134C8.598 15.841 8.163 15.403 8.163 14.879C8.163 14.35 8.598 13.917 9.134 13.917H14.849C15.38 13.917 15.815 14.35 15.815 14.879C15.815 15.403 15.38 15.841 14.849 15.841Z" fill="#1E1E1E"/>
</svg>
