<svg width="24" height="24" viewBox="0 0 24 24" fill="none" xmlns="http://www.w3.org/2000/svg">
<g clip-path="url(#clip0)">
<path fill-rule="evenodd" clip-rule="evenodd" d="M5.61414 4.99347C4.72587 4.99347 3.99991 5.71943 3.99991 6.6077V8.93148H5.80927V6.80283H18.1909V17.1906H13.9999V19H18.3861C19.2743 19 20.0003 18.274 20.0003 17.3857V6.6077C20.0003 5.71943 19.2743 4.99347 18.3861 4.99347H5.61414ZM4.19504 10.8046H3.99991V12.614H4.19504C7.63503 12.614 10.3859 15.3649 10.3859 18.8048V19H12.1952V18.8048C12.1952 14.3688 8.63107 10.8046 4.19504 10.8046ZM4.19504 13.6429H3.99991V15.4522H4.19504C6.07401 15.4522 7.54767 16.9259 7.54767 18.8048V19H9.35702V18.8048C9.35702 15.9298 7.07005 13.6429 4.19504 13.6429ZM4.19504 16.4811H3.99991V19H6.51882V18.8048C6.51882 17.4908 5.50904 16.4811 4.19504 16.4811Z" fill="#1E1E1E"/>
</g>
<defs>
<clipPath id="clip0">
<rect width="16" height="16" fill="white" transform="translate(4 4)"/>
</clipPath>
</defs>
</svg>
