<svg width="24" height="24" viewBox="0 0 24 24" fill="none" xmlns="http://www.w3.org/2000/svg">
<g clip-path="url(#clip0)">
<path fill-rule="evenodd" clip-rule="evenodd" d="M16.5 14.115V13.75H16.135L16.5 14.115ZM14.25 11.865V10.25H16.5V8.5H12.5V10.115L14.25 11.865ZM11.5 9.11497V8.5H10.885L11.5 9.11497ZM7.91282 8.5L9.66282 10.25H9.25V13.75H11.5V15.5H7.5V8.5H7.91282ZM12.5 13.0872L14.9128 15.5H12.5V13.0872Z" fill="#1E1E1E"/>
<path fill-rule="evenodd" clip-rule="evenodd" d="M18.5139 22L1 4.4861L2.4861 3L20 20.5139L18.5139 22Z" fill="#1E1E1E"/>
<path fill-rule="evenodd" clip-rule="evenodd" d="M20.7357 18.3506C20.9024 18.1089 21 17.8159 21 17.5V6.5C21 5.67157 20.3284 5 19.5 5H7.38503L9.18503 6.8H19.2V16.815L20.7357 18.3506ZM6.21282 6.8H4.8V17.2H16.6128L18.4128 19H4.5C3.67157 19 3 18.3284 3 17.5V6.5C3 5.70004 3.62621 5.04634 4.41518 5.00236L6.21282 6.8Z" fill="#1E1E1E"/>
</g>
<defs>
<clipPath id="clip0">
<rect width="20" height="16" fill="white" transform="translate(2 4)"/>
</clipPath>
</defs>
</svg>
