<svg width="24" height="24" viewBox="0 0 24 24" fill="none" xmlns="http://www.w3.org/2000/svg">
<path d="M1.293 12.707L5.293 16.707C5.38525 16.8025 5.49559 16.8787 5.6176 16.9311C5.7396 16.9835 5.87082 17.0111 6.0036 17.0123C6.13638 17.0134 6.26806 16.9881 6.39095 16.9378C6.51385 16.8876 6.6255 16.8133 6.7194 16.7194C6.81329 16.6255 6.88754 16.5139 6.93782 16.391C6.9881 16.2681 7.0134 16.1364 7.01225 16.0036C7.0111 15.8708 6.98351 15.7396 6.9311 15.6176C6.87869 15.4956 6.80251 15.3853 6.707 15.293L3.414 12L6.707 8.70702C6.80251 8.61477 6.87869 8.50443 6.9311 8.38242C6.98351 8.26042 7.0111 8.1292 7.01225 7.99642C7.0134 7.86364 6.9881 7.73196 6.93782 7.60907C6.88754 7.48617 6.81329 7.37452 6.7194 7.28062C6.6255 7.18673 6.51385 7.11248 6.39095 7.0622C6.26806 7.01192 6.13638 6.98662 6.0036 6.98777C5.87082 6.98892 5.7396 7.01651 5.6176 7.06892C5.49559 7.12133 5.38525 7.19751 5.293 7.29302L1.293 11.293C1.10553 11.4805 1.00021 11.7349 1.00021 12C1.00021 12.2652 1.10553 12.5195 1.293 12.707Z" fill="#1E1E1E"/>
<path d="M18.707 7.29302C18.6148 7.19751 18.5044 7.12133 18.3824 7.06892C18.2604 7.01651 18.1292 6.98892 17.9964 6.98777C17.8636 6.98662 17.7319 7.01192 17.609 7.0622C17.4862 7.11248 17.3745 7.18673 17.2806 7.28062C17.1867 7.37452 17.1125 7.48617 17.0622 7.60907C17.0119 7.73196 16.9866 7.86364 16.9877 7.99642C16.9889 8.1292 17.0165 8.26042 17.0689 8.38242C17.1213 8.50443 17.1975 8.61477 17.293 8.70702L20.586 12L17.293 15.293C17.1975 15.3853 17.1213 15.4956 17.0689 15.6176C17.0165 15.7396 16.9889 15.8708 16.9877 16.0036C16.9866 16.1364 17.0119 16.2681 17.0622 16.391C17.1125 16.5139 17.1867 16.6255 17.2806 16.7194C17.3745 16.8133 17.4862 16.8876 17.609 16.9378C17.7319 16.9881 17.8636 17.0134 17.9964 17.0123C18.1292 17.0111 18.2604 16.9835 18.3824 16.9311C18.5044 16.8787 18.6148 16.8025 18.707 16.707L22.707 12.707C22.8945 12.5195 22.9998 12.2652 22.9998 12C22.9998 11.7349 22.8945 11.4805 22.707 11.293L18.707 7.29302Z" fill="#1E1E1E"/>
<path d="M13.039 4.72601L9.039 18.726C8.96618 18.9809 8.99754 19.2542 9.12617 19.486C9.2548 19.7178 9.47019 19.889 9.725 19.962C9.81459 19.9868 9.90706 19.9995 10 20C10.2173 19.9999 10.4287 19.9289 10.6021 19.7979C10.7755 19.6669 10.9015 19.483 10.961 19.274L14.961 5.27401C15.0027 5.14616 15.0182 5.01122 15.0065 4.87725C14.9948 4.74328 14.9563 4.61304 14.8931 4.49432C14.83 4.3756 14.7435 4.27084 14.6389 4.1863C14.5343 4.10176 14.4138 4.03919 14.2845 4.00231C14.1551 3.96544 14.0197 3.95503 13.8863 3.97171C13.7528 3.98838 13.6241 4.0318 13.5079 4.09936C13.3916 4.16692 13.2901 4.25724 13.2096 4.36491C13.129 4.47258 13.071 4.5954 13.039 4.72601Z" fill="#1E1E1E"/>
</svg>
