<svg width="24" height="24" viewBox="0 0 24 24" fill="none" xmlns="http://www.w3.org/2000/svg">
<path d="M14.7453 3.07891C16.4505 1.37368 19.2157 1.37368 20.9209 3.07891C22.6261 4.78413 22.6261 7.54844 20.9209 9.25366L15.7358 14.4387C14.0306 16.1439 11.2664 16.1439 9.56113 14.4387C9.15759 14.0352 9.15759 13.3809 9.56113 12.9773C9.96467 12.5738 10.619 12.5738 11.0225 12.9773C11.9206 13.8755 13.3763 13.8755 14.2745 12.9773L19.4595 7.79225C20.3576 6.89414 20.3576 5.43838 19.4595 4.54027C18.5614 3.64212 17.1048 3.64212 16.2067 4.54027L13.3791 7.36779C12.9756 7.77133 12.3213 7.77133 11.9178 7.36779C11.5142 6.96425 11.5142 6.30996 11.9178 5.90642L14.7453 3.07891Z" fill="#1E1E1E"/>
<path d="M7.79334 10.0316C9.49857 8.32638 12.2628 8.32638 13.9681 10.0316C14.3716 10.4351 14.3716 11.0894 13.9681 11.493C13.5645 11.8965 12.9102 11.8965 12.5067 11.493C11.6086 10.5948 10.1528 10.5948 9.25471 11.493L5.56194 15.1857L4.5405 16.2072C3.86507 16.8826 3.6976 17.8734 4.03818 18.7054C4.15046 18.9796 4.31797 19.2366 4.54069 19.4594C5.43876 20.358 6.89437 20.3581 7.79334 19.4592L10.15 17.1025C10.5536 16.6989 11.2079 16.6989 11.6114 17.1024C12.015 17.506 12.015 18.1603 11.6114 18.5638L9.25475 20.9205C7.5487 22.6265 4.78424 22.6266 3.07917 20.9205C1.37399 19.2153 1.37396 16.451 3.07917 14.7458L7.79334 10.0316Z" fill="#1E1E1E"/>
</svg>
