<svg width="24" height="24" viewBox="0 0 24 24" fill="none" xmlns="http://www.w3.org/2000/svg">
<path d="M8.13375 19H5.23125V9.65292H8.13375V19ZM6.68094 8.37789C5.75281 8.37789 5 7.60912 5 6.68097C5 6.23515 5.1771 5.80759 5.49234 5.49235C5.80757 5.1771 6.23513 5 6.68094 5C7.12675 5 7.5543 5.1771 7.86954 5.49235C8.18478 5.80759 8.36188 6.23515 8.36188 6.68097C8.36188 7.60912 7.60875 8.37789 6.68094 8.37789ZM18.9969 19H16.1006V14.4499C16.1006 13.3655 16.0787 11.9748 14.5916 11.9748C13.0825 11.9748 12.8513 13.153 12.8513 14.3718V19H9.95188V9.65292H12.7356V10.9279H12.7762C13.1637 10.1936 14.1103 9.41854 15.5225 9.41854C18.46 9.41854 19 11.353 19 13.8655V19H18.9969Z" fill="#1E1E1E"/>
</svg>
