<svg width="24" height="24" viewBox="0 0 24 24" fill="none" xmlns="http://www.w3.org/2000/svg">
<path fill-rule="evenodd" clip-rule="evenodd" d="M6.9853 11.4882H9.10295C10.4203 11.4882 11.4882 10.4203 11.4882 9.10292V6.98527C11.4882 5.66791 10.4203 4.59998 9.10295 4.59998H6.9853C5.66794 4.59998 4.60001 5.66791 4.60001 6.98527V9.10292C4.60001 10.4203 5.66794 11.4882 6.9853 11.4882ZM6.19412 6.98527C6.19412 6.54832 6.54835 6.19409 6.9853 6.19409H9.10295C9.53989 6.19409 9.89412 6.54832 9.89412 6.98527V9.10292C9.89412 9.53986 9.53989 9.89409 9.10295 9.89409H6.9853C6.54835 9.89409 6.19412 9.53986 6.19412 9.10292V6.98527ZM6.9853 19.4882H9.10295C10.4203 19.4882 11.4882 18.4203 11.4882 17.1029V14.9853C11.4882 13.6679 10.4203 12.6 9.10295 12.6H6.9853C5.66794 12.6 4.60001 13.6679 4.60001 14.9853V17.1029C4.60001 18.4203 5.66794 19.4882 6.9853 19.4882ZM6.19412 14.9853C6.19412 14.5483 6.54835 14.1941 6.9853 14.1941H9.10295C9.53989 14.1941 9.89412 14.5483 9.89412 14.9853V17.1029C9.89412 17.5399 9.53989 17.8941 9.10295 17.8941H6.9853C6.54835 17.8941 6.19412 17.5399 6.19412 17.1029V14.9853ZM14.9853 19.4882H17.1029C18.4203 19.4882 19.4882 18.4203 19.4882 17.1029V14.9853C19.4882 13.6679 18.4203 12.6 17.1029 12.6H14.9853C13.6679 12.6 12.6 13.6679 12.6 14.9853V17.1029C12.6 18.4203 13.6679 19.4882 14.9853 19.4882ZM14.1941 17.1029V14.9853C14.1941 14.5483 14.5484 14.1941 14.9853 14.1941H17.1029C17.5399 14.1941 17.8941 14.5483 17.8941 14.9853V17.1029C17.8941 17.5399 17.5399 17.8941 17.1029 17.8941H14.9853C14.5484 17.8941 14.1941 17.5399 14.1941 17.1029ZM14.9853 11.4882H17.1029C18.4203 11.4882 19.4882 10.4203 19.4882 9.10292V6.98527C19.4882 5.66791 18.4203 4.59998 17.1029 4.59998H14.9853C13.6679 4.59998 12.6 5.66791 12.6 6.98527V9.10292C12.6 10.4203 13.6679 11.4882 14.9853 11.4882ZM14.1941 6.98527C14.1941 6.54832 14.5484 6.19409 14.9853 6.19409H17.1029C17.5399 6.19409 17.8941 6.54832 17.8941 6.98527V9.10292C17.8941 9.53986 17.5399 9.89409 17.1029 9.89409H14.9853C14.5484 9.89409 14.1941 9.53986 14.1941 9.10292V6.98527Z" fill="#1E1E1E"/>
</svg>
