<svg width="28" height="28" viewBox="0 0 28 28" fill="none" xmlns="http://www.w3.org/2000/svg">
<g clip-path="url(#clip0_161_814)">
<path d="M7.875 28.0005H20.125C20.8212 28.0005 21.4889 27.7239 21.9812 27.2316C22.4734 26.7394 22.75 26.0717 22.75 25.3755V2.62549C22.75 1.92929 22.4734 1.26162 21.9812 0.769333C21.4889 0.27705 20.8212 0.000488281 20.125 0.000488281L7.875 0.000488281C7.17881 0.000488281 6.51113 0.27705 6.01884 0.769333C5.52656 1.26162 5.25 1.92929 5.25 2.62549V25.3755C5.25 26.0717 5.52656 26.7394 6.01884 27.2316C6.51113 27.7239 7.17881 28.0005 7.875 28.0005ZM11.41 1.75049H16.59V2.18799H11.41V1.75049ZM7 2.62549C7 2.39342 7.09219 2.17086 7.25628 2.00677C7.42038 1.84268 7.64294 1.75049 7.875 1.75049H9.66V3.06299C9.66 3.29505 9.75219 3.51761 9.91628 3.68171C10.0804 3.8458 10.3029 3.93799 10.535 3.93799H17.465C17.6971 3.93799 17.9196 3.8458 18.0837 3.68171C18.2478 3.51761 18.34 3.29505 18.34 3.06299V1.75049H20.125C20.3571 1.75049 20.5796 1.84268 20.7437 2.00677C20.9078 2.17086 21 2.39342 21 2.62549V25.3755C21 25.6076 20.9078 25.8301 20.7437 25.9942C20.5796 26.1583 20.3571 26.2505 20.125 26.2505H7.875C7.64294 26.2505 7.42038 26.1583 7.25628 25.9942C7.09219 25.8301 7 25.6076 7 25.3755V2.62549Z" fill="white"/>
<path d="M15.1667 8.83301H12.8334V15.1839L10.4738 12.8188L8.81934 14.4733L13.0355 18.6822L13.1646 18.8179L13.1717 18.8251C13.2802 18.9344 13.4092 19.0212 13.5514 19.0804C13.6936 19.1397 13.8461 19.1702 14.0001 19.1702C14.1541 19.1702 14.3066 19.1397 14.4487 19.0804C14.5909 19.0212 14.72 18.9345 14.8285 18.8251L14.9646 18.6822L19.1808 14.4733L17.5263 12.8188L15.1667 15.1839V8.83301Z" fill="white"/>
</g>
<defs>
<clipPath id="clip0_161_814">
<rect width="28" height="28" fill="white"/>
</clipPath>
</defs>
</svg>
