<svg width="24" height="24" viewBox="0 0 24 24" fill="none" xmlns="http://www.w3.org/2000/svg">
<path d="M22 12C22 16.9718 17.9718 21 13 21C12.071 21 11.1782 20.8585 10.3363 20.5972C10.7028 19.9984 11.2508 19.0185 11.454 18.2383C11.5629 17.8173 12.0129 16.0972 12.0129 16.0972C12.3069 16.656 13.1633 17.1315 14.0742 17.1315C16.7887 17.1315 18.7448 14.6347 18.7448 11.5319C18.7448 8.55968 16.3169 6.33508 13.196 6.33508C9.3129 6.33508 7.24798 8.94073 7.24798 11.7823C7.24798 13.1032 7.95202 14.7472 9.07339 15.2698C9.24395 15.3496 9.33468 15.3133 9.3746 15.15C9.40363 15.0266 9.55605 14.4133 9.625 14.1302C9.64677 14.0395 9.63589 13.9597 9.56331 13.8726C9.19677 13.419 8.89919 12.5915 8.89919 11.8185C8.89919 9.83347 10.4016 7.91371 12.9637 7.91371C15.1738 7.91371 16.7234 9.41976 16.7234 11.5754C16.7234 14.0105 15.4931 15.698 13.8927 15.698C13.0109 15.698 12.3468 14.9685 12.5609 14.0722C12.8149 13.0016 13.3048 11.8476 13.3048 11.0746C13.3048 10.3851 12.9347 9.80806 12.1653 9.80806C11.2617 9.80806 10.5359 10.7407 10.5359 11.9927C10.5359 12.7911 10.8044 13.3282 10.8044 13.3282C10.8044 13.3282 9.91532 17.0952 9.75202 17.7992C9.57056 18.5758 9.64315 19.6718 9.71936 20.3831C6.37339 19.073 4 15.8141 4 12C4 7.02823 8.02823 3 13 3C17.9718 3 22 7.02823 22 12Z" fill="#1E1E1E"/>
</svg>
