<svg width="24" height="24" viewBox="0 0 24 24" fill="none" xmlns="http://www.w3.org/2000/svg">
<g clip-path="url(#clip0)">
<path d="M18.2165 10.2054C17.7112 10.2054 17.2665 10.418 16.9392 10.7494C15.7358 9.90404 14.1132 9.36004 12.3152 9.30204L13.2492 5.03137L16.2232 5.70871C16.2232 6.44737 16.8165 7.05071 17.5445 7.05071C18.2865 7.05071 18.8832 6.43137 18.8832 5.69204C18.8832 4.95271 18.2905 4.33337 17.5452 4.33337C17.0258 4.33337 16.5778 4.65137 16.3545 5.08604L13.0698 4.34737C12.9045 4.30271 12.7425 4.42271 12.6985 4.59071L11.6732 9.29871C9.88916 9.37404 8.28382 9.91737 7.07649 10.7634C6.74916 10.418 6.28716 10.2054 5.78182 10.2054C3.90716 10.2054 3.29316 12.758 5.00982 13.6307C4.94916 13.9007 4.92182 14.1887 4.92182 14.476C4.92182 17.3434 8.10516 19.6667 12.0138 19.6667C15.9392 19.6667 19.1225 17.3434 19.1225 14.476C19.1225 14.1887 19.0925 13.8874 19.0185 13.6167C20.7005 12.7407 20.0812 10.2067 18.2165 10.2054ZM7.73382 13.812C7.73382 13.0594 8.32716 12.4534 9.07249 12.4534C9.80049 12.4534 10.3945 13.0554 10.3945 13.812C10.3945 14.5514 9.80116 15.154 9.07249 15.154C8.33049 15.1574 7.73382 14.5514 7.73382 13.812ZM14.9598 17.0107C13.7325 18.256 10.2692 18.256 9.04116 17.0107C8.90582 16.8907 8.90582 16.6787 9.04116 16.542C9.15916 16.422 9.36849 16.422 9.48649 16.542C10.4238 17.5174 13.5332 17.534 14.5112 16.542C14.6292 16.422 14.8385 16.422 14.9565 16.542C15.0945 16.6794 15.0945 16.8914 14.9598 17.0107ZM14.9325 15.1567C14.2045 15.1567 13.6112 14.5547 13.6112 13.816C13.6112 13.0634 14.2045 12.4574 14.9325 12.4574C15.6745 12.4574 16.2712 13.0594 16.2712 13.816C16.2678 14.5514 15.6745 15.1567 14.9325 15.1567Z" fill="#1E1E1E"/>
</g>
<defs>
<clipPath id="clip0">
<rect width="16" height="16" fill="white" transform="translate(4 4)"/>
</clipPath>
</defs>
</svg>
