<svg width="24" height="24" viewBox="0 0 24 24" fill="none" xmlns="http://www.w3.org/2000/svg">
<path fill-rule="evenodd" clip-rule="evenodd" d="M10.5338 4C9.94082 4 9.40052 4.42475 9.31951 5.03498L9.10924 6.46431C8.91913 6.55996 8.7311 6.66707 8.54378 6.78634L7.14202 6.2382L7.13739 6.23645C6.5809 6.02467 5.93207 6.23825 5.63322 6.76343L4.17172 9.22635C3.8541 9.75228 3.99009 10.4255 4.47233 10.7967L4.47469 10.7985L5.64455 11.6888C5.63799 11.796 5.63466 11.899 5.63466 12C5.63466 12.101 5.638 12.2038 5.64435 12.3106L4.47197 13.2036L4.46937 13.2056C3.98843 13.5765 3.86676 14.2322 4.16085 14.7578L5.62875 17.231C5.92811 17.7571 6.56941 17.9642 7.12682 17.7675L7.13539 17.7645L8.54062 17.2152C8.72542 17.3327 8.91508 17.4402 9.10874 17.537L9.31822 18.9588C9.39943 19.5722 9.93697 20 10.5331 20L13.4682 20C14.0611 20 14.6014 19.5753 14.6824 18.965L14.8927 17.5363C15.0828 17.4407 15.2708 17.3336 15.4582 17.2143L16.8599 17.7624L16.8656 17.7646C17.4186 17.9737 18.069 17.7639 18.3687 17.2373L19.8373 14.7637L19.8441 14.7516C20.1371 14.2281 20.0086 13.5741 19.5305 13.2046L18.3578 12.3116C18.3637 12.2125 18.3673 12.1079 18.3673 12C18.3673 11.8919 18.3635 11.7874 18.3575 11.6887L19.5286 10.7972L19.5309 10.7955C20.0122 10.4251 20.136 9.76893 19.84 9.24204L18.3723 6.76912C18.0728 6.24515 17.4314 6.03307 16.8717 6.23385L15.4611 6.78534C15.2764 6.66759 15.0869 6.56005 14.8932 6.46331L14.6837 5.04133C14.6026 4.4278 14.065 4 13.4688 4L10.5338 4ZM13.0424 5.74118L10.9972 5.71814L10.9924 5.71809L10.7478 7.17824C10.7008 7.48135 10.4954 7.72893 10.2199 7.84021L10.2174 7.84122C9.8742 7.97783 9.53125 8.17006 9.1677 8.43602L9.16587 8.43736C8.92763 8.61013 8.61594 8.65262 8.33735 8.54308L6.95 8.00041L5.91479 9.70088L7.08043 10.6266C7.31566 10.8088 7.44378 11.1035 7.40475 11.4073C7.37337 11.6541 7.36002 11.8397 7.36002 12C7.36002 12.1611 7.3729 12.3475 7.40463 12.5917C7.44428 12.8973 7.31408 13.1953 7.07506 13.3775L5.89544 14.2754L6.90841 15.9821L8.34258 15.4552L8.33385 15.4586L8.34783 15.4533L8.34258 15.4552C8.44849 15.4143 8.5547 15.3976 8.65462 15.3976C8.83633 15.3976 9.02095 15.4546 9.17585 15.5712C9.50598 15.8183 9.85641 16.0158 10.2173 16.16C10.498 16.2719 10.703 16.5237 10.749 16.8271L10.7494 16.8295L10.96 18.2592L13.0095 18.2819L13.2535 16.8227C13.3005 16.5177 13.5078 16.2695 13.7846 16.1594C14.1272 16.023 14.4697 15.8303 14.835 15.564L14.8367 15.5628C15.0745 15.3908 15.3863 15.349 15.6633 15.4573L17.0506 15.9999L18.1019 14.273L16.9264 13.3776C16.6875 13.1956 16.5572 12.8979 16.5966 12.5925C16.62 12.4106 16.6413 12.2116 16.6413 12C16.6413 11.7891 16.62 11.5896 16.5966 11.4078C16.5572 11.1016 16.6878 10.8042 16.9265 10.6223L18.1051 9.7252L17.0923 8.01875L15.6583 8.54555C15.3788 8.65306 15.0649 8.60814 14.8268 8.43051C14.4956 8.18247 14.1449 7.98474 13.7845 7.84116C13.5036 7.72931 13.299 7.47762 13.2529 7.17408L13.2525 7.17151L13.0424 5.74118Z" fill="#1E1E1E"/>
<path fill-rule="evenodd" clip-rule="evenodd" d="M12.0001 9.21436C10.4636 9.21436 9.21436 10.4636 9.21436 12.0001C9.21436 13.5366 10.4636 14.7858 12.0001 14.7858C13.5366 14.7858 14.7858 13.5366 14.7858 12.0001C14.7858 10.4636 13.5366 9.21436 12.0001 9.21436ZM10.6715 12.0001C10.6715 11.2678 11.2678 10.6715 12.0001 10.6715C12.7324 10.6715 13.3286 11.2678 13.3286 12.0001C13.3286 12.7324 12.7324 13.3286 12.0001 13.3286C11.2678 13.3286 10.6715 12.7324 10.6715 12.0001Z" fill="#1E1E1E"/>
</svg>
