<svg width="24" height="24" viewBox="0 0 24 24" fill="none" xmlns="http://www.w3.org/2000/svg">
<path d="M20.8146 8.1682L16.6402 4.17628C16.4598 4.00369 16.1892 3.9525 15.9546 4.04645C15.7197 4.14019 15.5667 4.36056 15.5667 4.60492V6.417C13.4973 6.54844 12.4639 7.37304 12.2772 7.53734C9.68033 9.61454 9.96752 12.447 10.0548 13.0105C10.056 13.0186 10.0573 13.0268 10.0588 13.0349L10.1427 13.4986C10.1878 13.7478 10.389 13.9436 10.6474 13.9897C10.686 13.9966 10.7246 14 10.7628 14C10.9812 14 11.1874 13.8907 11.3023 13.7062L11.5538 13.3034C12.9287 11.1059 14.6277 10.752 15.5667 10.749V12.629C15.5667 12.874 15.7205 13.0946 15.9563 13.1881C16.1921 13.2814 16.4629 13.229 16.6425 13.0556L20.8169 9.02343C21.0619 8.78674 21.0609 8.40368 20.8146 8.1682Z" fill="#1E1E1E"/>
<path fill-rule="evenodd" clip-rule="evenodd" d="M9.21409 5.91357H4.85008C4.38057 5.91354 4 6.33333 4 6.8512V18.3125C4 18.8304 4.38056 19.2502 4.85006 19.2502H18.1499C18.6194 19.2502 19 18.8304 19 18.3125V15.6764C19 15.1585 18.6194 14.7387 18.1499 14.7387C17.6804 14.7387 17.2999 15.1585 17.2999 15.6764V17.3748H5.70016V7.7889H9.21409C9.68359 7.7889 10.0642 7.36913 10.0642 6.85124C10.0642 6.33335 9.68359 5.91357 9.21409 5.91357Z" fill="#1E1E1E"/>
</svg>
