<svg width="24" height="24" viewBox="0 0 24 24" fill="none" xmlns="http://www.w3.org/2000/svg">
<path fill-rule="evenodd" clip-rule="evenodd" d="M15.9911 12.2694C15.997 12.1804 16.0001 12.0905 16.0001 11.9999C16.0001 10.431 15.0934 9.07545 13.7778 8.42212V10.0562L15.9911 12.2694ZM13.7778 12.5591V15.5821C14.4289 15.2566 14.9798 14.7601 15.3703 14.1515L13.7778 12.5591Z" fill="#1E1E1E"/>
<path fill-rule="evenodd" clip-rule="evenodd" d="M18.7485 20L4 5.25146L5.25146 4L20 18.7485L18.7485 20Z" fill="#1E1E1E"/>
<path fill-rule="evenodd" clip-rule="evenodd" d="M19.2036 15.482C19.7138 14.4301 20.0001 13.249 20.0001 12.0001C20.0001 8.19126 17.3378 5.01346 13.7778 4.20459V6.04013C16.3467 6.80459 18.2223 9.18234 18.2223 12.0001C18.2223 12.7474 18.0904 13.4636 17.8486 14.1271L19.2036 15.482ZM16.9657 15.7471C16.1756 16.7908 15.0635 17.5775 13.7778 17.9601V19.7957C15.562 19.3903 17.1207 18.3899 18.2318 17.0132L16.9657 15.7471Z" fill="#1E1E1E"/>
<path fill-rule="evenodd" clip-rule="evenodd" d="M12 8.27833V4L9.85353 6.13186L12 8.27833ZM8.59779 7.37903L7.21759 8.74984H4V15.2498H7.21759L12 20V10.7812L10 8.78124V15.3696L8.11572 13.2498H6V10.7498H8.11572L9.92884 8.71008L8.59779 7.37903Z" fill="#1E1E1E"/>
</svg>
