<svg width="24" height="24" viewBox="0 0 24 24" fill="none" xmlns="http://www.w3.org/2000/svg">
<g clip-path="url(#clip0)">
<path d="M16.0001 12C16.0001 10.4311 15.0934 9.07551 13.7778 8.42218V15.5822C15.0934 14.9244 16.0001 13.5688 16.0001 12Z" fill="#1E1E1E"/>
<path fill-rule="evenodd" clip-rule="evenodd" d="M12 4.00006V20.0001L7.21759 15.2499H4V8.7499H7.21759L12 4.00006ZM10 8.63009L8.11572 10.7499H6V13.2499H8.11572L10 15.3697V8.63009Z" fill="#1E1E1E"/>
<path d="M13.7778 4.20441V6.03995C16.3467 6.80441 18.2223 9.18216 18.2223 11.9999C18.2223 14.8177 16.3467 17.1955 13.7778 17.9599V19.7955C17.3378 18.9866 20.0001 15.8088 20.0001 11.9999C20.0001 8.19107 17.3378 5.01328 13.7778 4.20441Z" fill="#1E1E1E"/>
</g>
<defs>
<clipPath id="clip0">
<rect width="16" height="16" fill="white" transform="translate(4 4)"/>
</clipPath>
</defs>
</svg>
