<svg width="24" height="24" viewBox="0 0 24 24" fill="none" xmlns="http://www.w3.org/2000/svg">
<path d="M19.1498 8.48905C19.1612 8.64217 19.1612 8.79532 19.1612 8.94844C19.1612 13.6187 15.4493 19 8.66499 19C6.57488 19 4.63326 18.4203 3 17.4141C3.29697 17.4469 3.58247 17.4578 3.89086 17.4578C5.61546 17.4578 7.20305 16.9 8.47083 15.9485C6.84899 15.9156 5.48985 14.8984 5.02156 13.4984C5.25001 13.5312 5.47842 13.5531 5.71829 13.5531C6.0495 13.5531 6.38074 13.5093 6.6891 13.4328C4.99875 13.1047 3.73094 11.6828 3.73094 9.96562V9.92189C4.22204 10.1844 4.79315 10.3484 5.39844 10.3703C4.40478 9.73591 3.75379 8.65311 3.75379 7.4281C3.75379 6.77186 3.9365 6.1703 4.25631 5.6453C6.07232 7.78904 8.80203 9.18902 11.8629 9.34217C11.8058 9.07967 11.7716 8.80626 11.7716 8.53282C11.7716 6.58592 13.4162 5 15.4607 5C16.5228 5 17.4822 5.42656 18.1561 6.11562C18.9898 5.96251 19.7893 5.66718 20.4975 5.2625C20.2233 6.08283 19.6409 6.7719 18.8756 7.20937C19.618 7.13284 20.3376 6.93592 21 6.66251C20.4975 7.36248 19.8693 7.9859 19.1498 8.48905Z" fill="#1E1E1E"/>
</svg>
