<svg width="24" height="24" viewBox="0 0 24 24" fill="none" xmlns="http://www.w3.org/2000/svg">
<path fill-rule="evenodd" clip-rule="evenodd" d="M21.1787 3.89459C19.4964 2.04956 14.3388 2.00315 12.5587 7.96644C12.3568 8.64357 13.031 9.27658 13.6835 8.97825C14.0375 8.81723 14.3908 8.73754 14.7341 8.73754C14.9922 8.73754 15.0817 8.78854 15.111 8.81418C15.1367 8.8367 15.1465 8.86279 15.1619 8.94295L15.1623 8.94483C15.2157 9.22367 15.1562 9.61423 15.0035 10.073C14.8528 10.5258 14.6201 11.02 14.3553 11.4943C14.0909 11.968 13.7972 12.4169 13.5275 12.7785C13.3367 13.0344 13.1635 13.2388 13.0252 13.3772C12.9913 13.3144 12.9557 13.2391 12.919 13.151C12.8402 12.9624 12.7613 12.7288 12.6835 12.4615C12.528 11.9269 12.3804 11.2704 12.2475 10.5949C11.9819 9.24475 11.7779 7.83471 11.6869 7.20591L11.6844 7.18871L11.6844 7.18867C11.6616 7.03083 11.6452 6.91811 11.6376 6.87619C11.387 5.24282 10.8476 4.25471 10.1754 3.69468C9.50043 3.13229 8.72285 3.02746 8.05459 3.09453C7.3577 3.1618 6.59502 3.6032 5.807 4.20535C5.0142 4.81116 4.16248 5.60668 3.28616 6.42518L3.28614 6.4252L3.28081 6.43018C2.88476 6.8001 2.48286 7.17547 2.07686 7.5426C1.75346 7.83602 1.70721 8.33329 1.97082 8.68277L2.85262 9.85124C3.12093 10.2081 3.6199 10.2883 3.98207 10.0264C4.57756 9.59756 4.88882 9.39945 5.04327 9.30954C5.11438 9.35837 5.19738 9.45008 5.28858 9.60503C5.40826 9.80839 5.52418 10.0898 5.63922 10.4393C5.8692 11.1381 6.08288 12.0682 6.31978 13.1003L6.32246 13.1119L6.32246 13.1119C6.71891 14.8392 7.17829 16.8406 7.88168 18.4108C8.58055 19.971 9.56365 21.2 11.0506 21.2C11.6315 21.2 12.2857 20.989 12.969 20.6305C13.6548 20.2706 14.384 19.7546 15.1187 19.1264C16.5881 17.8699 18.0945 16.1517 19.3372 14.2954C20.5789 12.4403 21.5653 10.4353 21.9831 8.60364C22.4 6.776 22.2587 5.07794 21.1787 3.89459ZM15.3339 8.80426C15.3337 8.8037 15.3335 8.80314 15.3334 8.80258L14.4943 8.54934C14.4935 8.54942 14.4927 8.5495 14.4919 8.54958L15.3339 8.80426ZM16.3131 7.66395C15.918 7.23811 15.321 7.05219 14.6707 7.05778C15.3982 5.59509 16.4913 4.88018 17.508 4.62728C18.0527 4.49182 18.5763 4.48864 19.0126 4.57502C19.4529 4.66218 19.7863 4.83656 19.9704 5.03826C20.627 5.75881 20.679 6.99135 20.2522 8.51906C19.8296 10.0316 18.9557 11.7639 17.8724 13.4049C16.7898 15.0449 15.5056 16.5824 14.2714 17.7075C13.6542 18.2701 13.0536 18.7258 12.5006 19.0398C11.9445 19.3556 11.453 19.5187 11.0498 19.5187C10.7157 19.5187 10.4164 19.3657 10.1356 19.0648C9.85168 18.7605 9.59716 18.3151 9.36345 17.7607C8.89585 16.6514 8.53578 15.1671 8.17161 13.6636L8.16857 13.651L8.16856 13.651C7.81153 12.1769 7.45014 10.6848 6.97913 9.56113C6.74289 8.99753 6.47303 8.51123 6.151 8.16326C5.82586 7.81191 5.43708 7.59145 4.97365 7.59145C4.77182 7.59145 4.57584 7.63837 4.15064 7.8932L4.20901 7.83816C4.87105 7.21387 5.67071 6.45994 6.4165 5.85119C6.78944 5.54678 7.14463 5.28223 7.45903 5.08945C7.77967 4.89284 8.03434 4.78588 8.21157 4.76886L8.21295 4.76872C8.58912 4.72994 8.87241 4.8183 9.09342 4.97518C9.31881 5.13518 9.49302 5.37636 9.62765 5.66252C9.89899 6.23923 9.98554 6.94378 10.0364 7.36529L10.0368 7.36839C10.0467 7.45037 10.0556 7.52431 10.0644 7.58209C10.0689 7.61139 10.0739 7.63996 10.0797 7.66529C10.0825 7.67761 10.0867 7.69491 10.0932 7.71382C10.4908 10.4486 10.8608 12.2984 11.2872 13.4677C11.501 14.0539 11.7351 14.487 12.0078 14.7757C12.2872 15.0714 12.6069 15.2142 12.9688 15.2142C13.1757 15.2139 13.387 15.136 13.5901 15.0169C13.7949 14.8969 14.0051 14.727 14.2136 14.5235C14.6307 14.1164 15.0581 13.558 15.442 12.9409C15.8264 12.323 16.1712 11.6398 16.4204 10.9798C16.6686 10.3226 16.8271 9.67515 16.8271 9.13254C16.8271 8.54052 16.6607 8.03866 16.3131 7.66395Z" fill="#1E1E1E"/>
</svg>
