<svg width="28" height="28" viewBox="0 0 28 28" fill="none" xmlns="http://www.w3.org/2000/svg">
<g clip-path="url(#clip0_156_739)">
<path fill-rule="evenodd" clip-rule="evenodd" d="M21.8158 4.03246C21.5519 3.68693 21.2641 3.35744 20.9532 3.04661C19.1091 1.20251 16.608 0.166504 14 0.166504C11.3921 0.166504 8.89096 1.20251 7.04685 3.04661C5.20275 4.89071 4.16675 7.39185 4.16675 9.9998V17.9998C4.16675 18.9816 4.31358 19.9483 4.59509 20.8704L6.56034 18.9489C6.5204 18.6357 6.50008 18.3188 6.50008 17.9998V9.9998C6.50008 8.01069 7.29025 6.10304 8.69677 4.69652C10.1033 3.29001 12.0109 2.49983 14 2.49983C15.9892 2.49983 17.8968 3.29001 19.3033 4.69652C19.6089 5.00208 19.8853 5.33128 20.1309 5.67983L21.8158 4.03246ZM22.4775 5.01711L20.742 6.71406C20.9665 7.17488 21.1436 7.65804 21.2699 8.15594L23.127 6.34011C22.9441 5.88401 22.727 5.44171 22.4775 5.01711ZM23.5303 7.57738L21.488 9.57437C21.496 9.71566 21.5 9.85752 21.5 9.9998V17.9998C21.5 19.9889 20.7098 21.8965 19.3033 23.3031C17.8968 24.7096 15.9892 25.4997 14 25.4997C12.0109 25.4997 10.1033 24.7096 8.69677 23.3031C8.48942 23.0957 8.29547 22.8775 8.11547 22.6497L6.44003 24.2879C6.63127 24.5178 6.83366 24.7398 7.04685 24.953C8.89096 26.7971 11.3921 27.8331 14 27.8331C16.608 27.8331 19.1091 26.7971 20.9532 24.953C22.7973 23.1089 23.8333 20.6077 23.8333 17.9998V9.9998C23.8333 9.17588 23.7299 8.36263 23.5303 7.57738ZM5.7422 23.3385L7.45564 21.6632C7.21103 21.2262 7.01088 20.7659 6.85811 20.2894L5.0451 22.0621C5.24526 22.5034 5.47814 22.9301 5.7422 23.3385Z" fill="white"/>
<path fill-rule="evenodd" clip-rule="evenodd" d="M15.1667 10.5343V8.83301H12.8334V12.8158L15.1667 10.5343ZM12.4615 14.8111L12.8334 15.1839V14.4474L15.1667 12.166V14.124L11.7834 17.4322L10.7925 16.443L12.4615 14.8111ZM11.6374 13.9851L10.4738 12.8188L8.81934 14.4733L9.96674 15.6187L11.6374 13.9851ZM12.6091 18.2565L13.0355 18.6822L13.1646 18.8179L13.1717 18.8251C13.2802 18.9344 13.4092 19.0212 13.5514 19.0804C13.6936 19.1397 13.8461 19.1702 14.0001 19.1702C14.1541 19.1702 14.3066 19.1397 14.4487 19.0804C14.5909 19.0212 14.72 18.9345 14.8285 18.8251L14.9646 18.6822L19.1808 14.4733L17.8447 13.1372L12.6091 18.2565Z" fill="white"/>
<path fill-rule="evenodd" clip-rule="evenodd" d="M0.677246 26.3327L26.9272 0.666016L27.906 1.66702L1.65601 27.3337L0.677246 26.3327Z" fill="white"/>
</g>
<defs>
<clipPath id="clip0_156_739">
<rect width="28" height="28" fill="white"/>
</clipPath>
</defs>
</svg>
