<svg width="28" height="28" viewBox="0 0 28 28" fill="none" xmlns="http://www.w3.org/2000/svg">
<path fill-rule="evenodd" clip-rule="evenodd" d="M14 0.166504C11.3921 0.166504 8.89096 1.20251 7.04685 3.04661C5.20275 4.89071 4.16675 7.39185 4.16675 9.9998V17.9998C4.16675 20.6077 5.20275 23.1089 7.04685 24.953C8.89096 26.7971 11.3921 27.8331 14 27.8331C16.608 27.8331 19.1091 26.7971 20.9532 24.953C22.7973 23.1089 23.8333 20.6077 23.8333 17.9998V9.9998C23.8333 7.39185 22.7973 4.89071 20.9532 3.04661C19.1091 1.20251 16.608 0.166504 14 0.166504ZM8.69677 4.69652C10.1033 3.29001 12.0109 2.49983 14 2.49983C15.9892 2.49983 17.8968 3.29001 19.3033 4.69652C20.7098 6.10304 21.5 8.01069 21.5 9.9998V17.9998C21.5 19.9889 20.7098 21.8965 19.3033 23.3031C17.8968 24.7096 15.9892 25.4997 14 25.4997C12.0109 25.4997 10.1033 24.7096 8.69677 23.3031C7.29025 21.8965 6.50008 19.9889 6.50008 17.9998V9.9998C6.50008 8.01069 7.29025 6.10304 8.69677 4.69652Z" fill="white"/>
<path d="M15.1667 8.83301H12.8334V15.1839L10.4738 12.8188L8.81934 14.4733L13.0355 18.6822L13.1646 18.8179L13.1717 18.8251C13.2802 18.9344 13.4092 19.0212 13.5514 19.0804C13.6936 19.1397 13.8461 19.1702 14.0001 19.1702C14.1541 19.1702 14.3066 19.1397 14.4487 19.0804C14.5909 19.0212 14.72 18.9345 14.8285 18.8251L14.9646 18.6822L19.1808 14.4733L17.5263 12.8188L15.1667 15.1839V8.83301Z" fill="white"/>
</svg>
