<svg width="22" height="16" viewBox="0 0 22 16" fill="none" xmlns="http://www.w3.org/2000/svg">
<path d="M10.9992 16C10.9974 16 10.9953 16 10.9933 16C10.3295 15.9954 4.4609 15.9416 2.79821 15.489C1.63621 15.1746 0.718929 14.2525 0.405727 13.0829C-0.0293313 11.4391 -0.00163662 8.27433 0.00138462 8.02162C-0.00146877 7.7701 -0.0294992 4.57915 0.404384 2.92185C0.404888 2.92033 0.405224 2.91864 0.405727 2.91712C0.715404 1.76085 1.65333 0.810152 2.79536 0.494943C2.79821 0.494098 2.80123 0.493423 2.80409 0.492578C4.44798 0.0577715 10.3282 0.00456092 10.9933 0H11.0052C11.6708 0.00456092 17.555 0.0584472 19.2024 0.511666C20.3614 0.825186 21.278 1.74615 21.592 2.91425C22.0433 4.57273 22.0016 7.7706 21.997 8.04054C22.0002 8.30643 22.0266 11.4428 21.594 13.0949C21.5937 13.0966 21.5932 13.0981 21.5928 13.0996C21.2795 14.2692 20.3624 15.1914 19.199 15.5061C19.1975 15.5066 19.1958 15.5069 19.1943 15.5074C17.5506 15.9421 11.6703 15.9953 11.0052 16C11.0032 16 11.0012 16 10.9992 16ZM2.06573 3.36544C1.68371 4.82831 1.7198 7.97855 1.72013 8.0103V8.03311C1.70872 8.90678 1.74884 11.4369 2.0659 12.6352C2.21965 13.2091 2.67199 13.6636 3.24569 13.8189C4.47248 14.1528 9.25225 14.2579 10.9992 14.2702C12.7507 14.2579 17.5375 14.1557 18.7552 13.8351C19.3271 13.6793 19.7779 13.2263 19.9327 12.6518C20.2501 11.4359 20.2899 8.91809 20.2783 8.05C20.2783 8.04088 20.2783 8.03176 20.2784 8.02264C20.2942 7.1385 20.2632 4.57881 19.9342 3.37085C19.9338 3.36967 19.9335 3.36848 19.9333 3.3673C19.7789 2.79094 19.3264 2.33637 18.7527 2.18113C17.5378 1.84683 12.7503 1.7421 10.9992 1.72977C9.2489 1.7421 4.46678 1.84413 3.24536 2.1644C2.68257 2.3215 2.21998 2.79229 2.06573 3.36544ZM20.763 12.8746H20.7635H20.763ZM8.80863 11.5026V4.49722L14.8243 8L8.80863 11.5026Z" fill="#1E1E1E"/>
</svg>
