<svg width="24" height="24" viewBox="0 0 24 24" fill="none" xmlns="http://www.w3.org/2000/svg">
<path d="M11.8156 9.95628L9.94062 9.95624H8.7C8.18119 9.95624 7.7625 10.3749 7.7625 10.8937C7.7625 11.4125 8.18119 11.8312 8.7 11.8312H11.8156H13.0562C13.5751 11.8312 13.9937 11.4125 13.9937 10.8937C13.9937 10.374 13.571 9.95624 13.0562 9.95624L11.8156 9.95628Z" fill="#1E1E1E"/>
<path fill-rule="evenodd" clip-rule="evenodd" d="M10.8781 4.05621C7.09966 4.05621 4.04375 7.11893 4.04375 10.8937C4.04375 14.6687 7.10297 17.7312 10.8812 17.7312C12.4302 17.7312 13.8586 17.2164 15.0046 16.3476L18.3546 19.6976L18.3558 19.6988C18.5091 19.8541 18.7576 19.9292 18.9725 19.9416C19.1949 19.9546 19.4801 19.9061 19.6854 19.6982C20.0478 19.3312 20.0478 18.7391 19.6809 18.3722L16.3289 15.0202C17.1979 13.874 17.7156 12.4429 17.7156 10.8937C17.7156 7.11875 14.6564 4.05621 10.8781 4.05621ZM5.925 10.8937C5.925 8.15651 8.14357 5.94059 10.8812 5.94059C13.6186 5.94059 15.8344 8.15928 15.8344 10.8937C15.8344 13.628 13.6156 15.8468 10.8812 15.8468C8.14357 15.8468 5.925 13.6309 5.925 10.8937Z" fill="#1E1E1E"/>
</svg>
